<svg width="64" height="64" viewBox="0 0 64 64" fill="none" xmlns="http://www.w3.org/2000/svg">
<path d="M12.6973 8.304H22.6813L41.7533 38.96H41.8813V8.304H51.2893V54H41.2413L22.2333 23.408H22.1053V54H12.6973V8.304Z" fill="#F78033"/>
<path d="M40.6488 56.4457L40.9326 56.3522L41.1186 56.1183L58.2196 34.6157C58.9763 33.6642 59.304 32.5628 59.1674 31.3647C59.0307 30.1665 58.4635 29.1671 57.512 28.4104L53.5718 25.2767C52.6203 24.52 51.5189 24.1923 50.3207 24.3289C49.1225 24.4655 48.1232 25.0328 47.3665 25.9843L30.2655 47.4869L30.0795 47.7208L30.0523 48.0183L29.302 56.2306C29.1948 57.1778 29.5641 57.9933 30.3019 58.5801C31.0398 59.1669 31.9175 59.3431 32.8162 59.0254L40.6488 56.4457ZM38.6741 49.4506L37.3124 48.3676L51.0644 31.0759L52.4261 32.1589L38.6741 49.4506Z" fill="#F78033" stroke="white" stroke-width="2"/>
</svg>
