<svg width="64" height="64" viewBox="0 0 64 64" fill="none" xmlns="http://www.w3.org/2000/svg">
<path d="M14.5482 15.776H24.2682V20.96H24.4842C25.7802 18.8 27.4602 17.24 29.5242 16.28C31.5882 15.272 33.7002 14.768 35.8602 14.768C38.5962 14.768 40.8282 15.152 42.5562 15.92C44.3322 16.64 45.7242 17.672 46.7322 19.016C47.7402 20.312 48.4362 21.92 48.8202 23.84C49.2522 25.712 49.4682 27.8 49.4682 30.104V53H39.2442V31.976C39.2442 28.904 38.7642 26.624 37.8042 25.136C36.8442 23.6 35.1402 22.832 32.6922 22.832C29.9082 22.832 27.8922 23.672 26.6442 25.352C25.3962 26.984 24.7722 29.696 24.7722 33.488V53H14.5482V15.776Z" fill="#F78033"/>
</svg>
